<svg xmlns="http://www.w3.org/2000/svg" viewBox="0 0 120 120" width="120" height="120">
  <rect width="120" height="120" rx="27" fill="#f2f0fe"/>
  <!-- Pixel-cloud mark, scaled up and centered to fill the badge. -->
  <g transform="translate(-34.5 -8.6) scale(1.125)">
    <g fill="#1d2939">
      <rect x="64" y="34" width="12" height="12" rx="2"/>
      <rect x="78" y="34" width="12" height="12" rx="2"/>
      <rect x="92" y="34" width="12" height="12" rx="2"/>
      <rect x="50" y="48" width="12" height="12" rx="2"/>
      <rect x="64" y="48" width="12" height="12" rx="2"/>
      <rect x="92" y="48" width="12" height="12" rx="2"/>
      <rect x="106" y="48" width="12" height="12" rx="2"/>
      <rect x="36" y="62" width="12" height="12" rx="2"/>
      <rect x="50" y="62" width="12" height="12" rx="2"/>
      <rect x="78" y="62" width="12" height="12" rx="2"/>
      <rect x="92" y="62" width="12" height="12" rx="2"/>
      <rect x="50" y="76" width="12" height="12" rx="2"/>
      <rect x="78" y="76" width="12" height="12" rx="2"/>
      <rect x="92" y="76" width="12" height="12" rx="2"/>
      <rect x="106" y="76" width="12" height="12" rx="2"/>
    </g>
    <g fill="#f26a1b">
      <rect x="78" y="48" width="12" height="12" rx="2"/>
      <rect x="120" y="62" width="12" height="12" rx="2"/>
      <rect x="106" y="62" width="12" height="12" rx="2"/>
      <rect x="64" y="76" width="12" height="12" rx="2"/>
    </g>
  </g>
</svg>
